<?xml version="1.0" encoding="utf-8"?>
<!-- Generator: Adobe Illustrator 16.0.4, SVG Export Plug-In . SVG Version: 6.00 Build 0)  -->
<!DOCTYPE svg PUBLIC "-//W3C//DTD SVG 1.1//EN" "http://www.w3.org/Graphics/SVG/1.1/DTD/svg11.dtd">
<svg version="1.1" id="Layer_1" xmlns="http://www.w3.org/2000/svg" xmlns:xlink="http://www.w3.org/1999/xlink" x="0px" y="0px"
	 width="315.5px" height="315.5px" viewBox="0 0 315.5 315.5" enable-background="new 0 0 315.5 315.5" xml:space="preserve">
<g id="Layer_2">
	<ellipse fill="#FFFFFF" stroke="#D8AC55" stroke-miterlimit="10" cx="143.5" cy="170.5" rx="102" ry="103"/>
</g>
<g id="Layer_1_1_">
	<g id="Your_Icon">
		<g>
			<path fill="#D8AC55" d="M159.609,191.8l-2.001,1.946c14.796,1.652,25.125,6.546,25.125,12.809
				c-0.002,8.153-16.575,15.553-39.205,15.553c-0.011,0-0.022,0-0.029,0c-0.01,0-0.021,0-0.03,0
				c-22.629,0-39.203-7.398-39.203-15.551c0-6.265,10.329-11.156,25.123-12.811l-2-1.945c-19.919,1.973-31.566,8.336-31.566,18.172
				c0,13.268,21.339,22.436,47.677,22.436c26.34,0,47.68-9.168,47.68-22.436C191.176,200.136,179.529,193.771,159.609,191.8z"/>
			<path fill="#D8AC55" d="M143.499,212.051c0.005,0.012,0.029,0.049,0.029,0.049s31.859-48.887,31.859-64.959
				c0-23.649-16.146-33.939-31.889-33.972c-15.743,0.032-31.891,10.322-31.891,33.972c0,16.072,31.86,64.959,31.86,64.959
				S143.491,212.062,143.499,212.051z M132.454,145.807c0-6.101,4.944-11.045,11.045-11.045s11.046,4.944,11.046,11.045
				c0,6.1-4.945,11.044-11.046,11.044C137.398,156.852,132.454,151.907,132.454,145.807z"/>
		</g>
	</g>
</g>
</svg>
