<?xml version="1.0" encoding="utf-8"?>
<!-- Generator: Adobe Illustrator 16.0.4, SVG Export Plug-In . SVG Version: 6.00 Build 0)  -->
<!DOCTYPE svg PUBLIC "-//W3C//DTD SVG 1.1//EN" "http://www.w3.org/Graphics/SVG/1.1/DTD/svg11.dtd">
<svg version="1.1" id="Layer_1" xmlns="http://www.w3.org/2000/svg" xmlns:xlink="http://www.w3.org/1999/xlink" x="0px" y="0px"
	 width="300px" height="300px" viewBox="0 0 300 300" enable-background="new 0 0 300 300" xml:space="preserve">
<g id="Layer_2">
	<circle fill="#FFFFFF" stroke="#D8AC54" stroke-miterlimit="10" cx="152.25" cy="150.375" r="102.688"/>
</g>
<g>
	<path fill="#D8AC54" d="M175.723,87.739c-0.761-1.034-1.975-1.714-3.354-1.714h-13.575c-1.229,0-2.321,0.541-3.085,1.389h-23.672
		c-9.748,0-17.676,7.93-17.676,17.676v87.96c0,9.747,7.93,17.675,17.676,17.675h40.354c9.736,0,17.659-7.93,17.659-17.675v-87.96
		C190.048,96.484,183.872,89.306,175.723,87.739z M181.717,193.051c0,5.153-4.186,9.348-9.33,9.348h-40.352
		c-5.152,0-9.344-4.193-9.344-9.348V105.09c0-5.153,4.192-9.345,9.344-9.345h40.352c5.146,0,9.33,4.192,9.33,9.345V193.051z"/>
	<path fill="#D8AC54" d="M173.286,170.02H131.12c-2.3,0-4.165,1.863-4.165,4.166c0,2.301,1.865,4.164,4.165,4.164h42.166
		c2.3,0,4.166-1.863,4.166-4.164C177.452,171.883,175.586,170.02,173.286,170.02z"/>
	<path fill="#D8AC54" d="M152.203,184.787c-3.736,0-6.778,3.041-6.778,6.779s3.042,6.776,6.778,6.776s6.779-3.038,6.779-6.776
		S155.939,184.787,152.203,184.787z M152.203,193.118c-0.855,0-1.553-0.697-1.553-1.552c0-0.855,0.698-1.553,1.553-1.553
		c0.857,0,1.553,0.696,1.553,1.553C153.756,192.421,153.061,193.118,152.203,193.118z"/>
</g>
</svg>
