<?xml version="1.0" encoding="utf-8"?>
<!-- Generator: Adobe Illustrator 16.0.4, SVG Export Plug-In . SVG Version: 6.00 Build 0)  -->
<!DOCTYPE svg PUBLIC "-//W3C//DTD SVG 1.1//EN" "http://www.w3.org/Graphics/SVG/1.1/DTD/svg11.dtd">
<svg version="1.1" id="Layer_1" xmlns="http://www.w3.org/2000/svg" xmlns:xlink="http://www.w3.org/1999/xlink" x="0px" y="0px"
	 width="266.5px" height="266.5px" viewBox="0 0 266.5 266.5" enable-background="new 0 0 266.5 266.5" xml:space="preserve">
<g id="Layer_2">
	<circle fill="#FFFFFF" stroke="#D8AC54" stroke-miterlimit="10" cx="133.25" cy="145.375" r="102.688"/>
</g>
<g>
	<path fill="#D8AC55" d="M156.723,82.739c-0.761-1.034-1.975-1.714-3.354-1.714h-13.575c-1.23,0-2.322,0.541-3.085,1.389h-23.672
		c-9.748,0-17.676,7.93-17.676,17.676v87.96c0,9.747,7.93,17.675,17.676,17.675h40.353c9.737,0,17.66-7.93,17.66-17.675v-87.96
		C171.048,91.484,164.872,84.306,156.723,82.739z M162.717,188.051c0,5.153-4.186,9.348-9.33,9.348h-40.352
		c-5.152,0-9.344-4.194-9.344-9.348V100.09c0-5.153,4.192-9.345,9.344-9.345h40.352c5.146,0,9.33,4.192,9.33,9.345V188.051z"/>
	<path fill="#D8AC55" d="M154.286,165.02H112.12c-2.3,0-4.165,1.863-4.165,4.166c0,2.301,1.865,4.164,4.165,4.164h42.166
		c2.3,0,4.166-1.863,4.166-4.164C158.452,166.883,156.586,165.02,154.286,165.02z"/>
	<path fill="#D8AC55" d="M133.203,179.787c-3.736,0-6.778,3.041-6.778,6.779s3.042,6.777,6.778,6.777s6.779-3.039,6.779-6.777
		S136.939,179.787,133.203,179.787z M133.203,188.118c-0.855,0-1.553-0.697-1.553-1.552s0.697-1.553,1.553-1.553
		c0.857,0,1.553,0.697,1.553,1.553C134.756,187.421,134.061,188.118,133.203,188.118z"/>
</g>
</svg>
