<?xml version="1.0" encoding="utf-8"?>
<!-- Generator: Adobe Illustrator 16.0.4, SVG Export Plug-In . SVG Version: 6.00 Build 0)  -->
<!DOCTYPE svg PUBLIC "-//W3C//DTD SVG 1.1//EN" "http://www.w3.org/Graphics/SVG/1.1/DTD/svg11.dtd">
<svg version="1.1" id="Layer_1" xmlns="http://www.w3.org/2000/svg" xmlns:xlink="http://www.w3.org/1999/xlink" x="0px" y="0px"
	 width="114.693px" height="114.693px" viewBox="0 0 114.693 114.693" enable-background="new 0 0 114.693 114.693"
	 xml:space="preserve">
<g>
	<path fill="#D8AC55" d="M56.571,6.53c-28.854,0-52.245,23.391-52.245,52.245c0,28.854,23.391,52.245,52.245,52.245
		c28.854,0,52.245-23.394,52.245-52.245C108.816,29.921,85.426,6.53,56.571,6.53z M78.377,61.128l-7.011,21.817l-1.188,3.688
		l-3.33-1.988l-0.268-0.157l-0.335,1.14l-26.93-15.161l-7.581-30.312l5.079,2.857c0.506-2.579-0.019-3.186-0.159-3.3
		c-0.668-0.521-0.785-1.489-0.258-2.164c0.524-0.668,1.495-0.779,2.163-0.257c1.933,1.523,1.768,4.438,1.062,7.305l3.156,1.772
		l0.821-3.058l1.018-3.821l3.209,1.789l2.098-7.194l13.522,7.611c1.42-0.653,3.404-2.033,3.459-3.137l0.017-0.375
		c0.12-2.565,0.24-5.223,2.816-6.598c0.756-0.398,1.684-0.114,2.086,0.638c0.401,0.749,0.12,1.684-0.635,2.085
		c-0.942,0.5-1.073,1.498-1.188,4.015l-0.018,0.383c-0.104,2.125-1.888,3.751-3.403,4.752l10.276,5.782L74.794,56.3l2.146,1.193
		l2.206,1.23L78.377,61.128z"/>
	<polygon fill="#D8AC55" points="65.653,54.736 62.137,52.774 46.945,44.314 46.576,44.106 45.554,47.926 58.666,55.311 
		64.802,79.836 68.429,82.001 75.439,60.193 73.918,59.339 	"/>
	<polygon fill="#D8AC55" points="67.763,47.728 52.056,38.946 50.845,42.964 66.564,51.716 	"/>
</g>
</svg>
