<?xml version="1.0" encoding="utf-8"?>
<!-- Generator: Adobe Illustrator 16.0.4, SVG Export Plug-In . SVG Version: 6.00 Build 0)  -->
<!DOCTYPE svg PUBLIC "-//W3C//DTD SVG 1.1//EN" "http://www.w3.org/Graphics/SVG/1.1/DTD/svg11.dtd">
<svg version="1.1" id="Layer_1" xmlns="http://www.w3.org/2000/svg" xmlns:xlink="http://www.w3.org/1999/xlink" x="0px" y="0px"
	 width="114.693px" height="114.693px" viewBox="0 0 114.693 114.693" enable-background="new 0 0 114.693 114.693"
	 xml:space="preserve">
<g>
	<path fill="#65A6DA" d="M56.571,6.53c-28.854,0-52.245,23.391-52.245,52.245c0,28.854,23.391,52.245,52.245,52.245
		c28.854,0,52.245-23.391,52.245-52.245C108.816,29.921,85.426,6.53,56.571,6.53z M78.377,61.128l-7.011,21.817l-1.188,3.691
		l-3.33-1.991l-0.265-0.157l-0.335,1.14L39.317,70.467l-7.581-30.312l5.079,2.857c0.506-2.579-0.016-3.183-0.159-3.297
		c-0.668-0.524-0.785-1.492-0.258-2.164c0.527-0.668,1.495-0.782,2.163-0.257c1.933,1.523,1.768,4.437,1.063,7.302l3.156,1.775
		l0.821-3.058l1.018-3.821l3.209,1.789l2.098-7.194l13.522,7.611c1.42-0.653,3.404-2.033,3.459-3.137l0.017-0.375
		c0.12-2.565,0.24-5.22,2.816-6.595c0.756-0.401,1.684-0.117,2.086,0.635c0.401,0.749,0.12,1.684-0.635,2.085
		c-0.942,0.5-1.073,1.498-1.188,4.015l-0.018,0.383c-0.102,2.125-1.888,3.751-3.403,4.752l10.276,5.782l-2.062,7.059l2.146,1.193
		l2.206,1.23L78.377,61.128z"/>
	<polygon fill="#65A6DA" points="65.653,54.736 62.137,52.774 46.945,44.314 46.576,44.106 45.554,47.926 58.666,55.311 
		64.802,79.836 68.429,82.001 75.439,60.193 73.918,59.339 	"/>
	<polygon fill="#65A6DA" points="67.763,47.728 52.056,38.946 50.845,42.964 66.564,51.716 	"/>
</g>
</svg>
