<?xml version="1.0" encoding="utf-8"?>
<!-- Generator: Adobe Illustrator 16.0.4, SVG Export Plug-In . SVG Version: 6.00 Build 0)  -->
<!DOCTYPE svg PUBLIC "-//W3C//DTD SVG 1.1//EN" "http://www.w3.org/Graphics/SVG/1.1/DTD/svg11.dtd">
<svg version="1.1" id="Layer_1" xmlns="http://www.w3.org/2000/svg" xmlns:xlink="http://www.w3.org/1999/xlink" x="0px" y="0px"
	 width="131.6px" height="132.8px" viewBox="0 0 131.6 132.8" enable-background="new 0 0 131.6 132.8" xml:space="preserve">
<g>
	<polygon fill="#64A7DB" points="43.708,78.903 48.719,78.903 49.738,75.588 81.863,75.588 82.883,78.903 87.889,78.903 
		87.89,78.903 87.89,72.359 43.708,72.359 	"/>
	<path fill="#64A7DB" d="M65.6,4C31.8,4,4.4,31.4,4.4,65.2s27.4,61.2,61.2,61.2s61.2-27.4,61.2-61.2S99.399,4,65.6,4z
		 M51.073,36.454h29.451v19.365H51.073V36.454z M95.253,83.769h-10.88l3.517,11.453H43.708l3.516-11.453H36.347V54.315h9.819v4.202
		h39.269v-4.202h9.818V83.769z"/>
</g>
</svg>
